<svg width="542" height="404" viewBox="0 0 542 404" fill="none" xmlns="http://www.w3.org/2000/svg">
<path d="M542 354.902H0V355.173H542V354.902Z" fill="#EBEBEB"/>
<path d="M348.528 370.013H312.626V370.284H348.528V370.013Z" fill="#EBEBEB"/>
<path d="M450.695 367.075H441.275V367.346H450.695V367.075Z" fill="#EBEBEB"/>
<path d="M429.904 362.284H355.194V362.555H429.904V362.284Z" fill="#EBEBEB"/>
<path d="M244.052 368.679H211.207V368.95H244.052V368.679Z" fill="#EBEBEB"/>
<path d="M201.559 368.679H180.724V368.95H201.559V368.679Z" fill="#EBEBEB"/>
<path d="M107.641 364.105H56.8666V364.376H107.641V364.105Z" fill="#EBEBEB"/>
<path d="M256.908 306.555H47.5984C45.9587 306.552 44.3871 305.899 43.2287 304.738C42.0702 303.578 41.4196 302.005 41.4196 300.366V6.13544C41.4339 4.50513 42.0908 2.94629 43.2477 1.79751C44.4046 0.648729 45.968 0.0027928 47.5984 0H256.908C258.55 0 260.124 0.652121 261.285 1.8129C262.446 2.97369 263.098 4.54804 263.098 6.18964V300.366C263.098 302.007 262.446 303.582 261.285 304.742C260.124 305.903 258.55 306.555 256.908 306.555ZM47.5984 0.216801C46.0306 0.219672 44.5279 0.844507 43.4203 1.95416C42.3127 3.0638 41.6906 4.5676 41.6906 6.13544V300.366C41.6906 301.933 42.3127 303.437 43.4203 304.547C44.5279 305.656 46.0306 306.281 47.5984 306.284H256.908C258.477 306.281 259.981 305.657 261.09 304.547C262.199 303.438 262.824 301.934 262.827 300.366V6.13544C262.824 4.5666 262.199 3.06283 261.09 1.95349C259.981 0.844154 258.477 0.219666 256.908 0.216801H47.5984Z" fill="#EBEBEB"/>
<path d="M491.388 306.555H282.068C280.427 306.552 278.854 305.899 277.694 304.739C276.534 303.579 275.881 302.006 275.878 300.366V6.13544C275.895 4.50414 276.554 2.94531 277.713 1.79683C278.872 0.64835 280.436 0.00276235 282.068 0H491.388C493.016 0.00564167 494.577 0.652838 495.732 1.80131C496.886 2.94979 497.542 4.507 497.556 6.13544V300.366C497.556 302.003 496.907 303.574 495.751 304.735C494.595 305.895 493.026 306.549 491.388 306.555ZM282.068 0.216801C280.499 0.219666 278.995 0.844154 277.886 1.95349C276.776 3.06283 276.152 4.5666 276.149 6.13544V300.366C276.152 301.934 276.776 303.438 277.886 304.547C278.995 305.657 280.499 306.281 282.068 306.284H491.388C492.957 306.281 494.461 305.657 495.57 304.547C496.679 303.438 497.304 301.934 497.307 300.366V6.13544C497.304 4.5666 496.679 3.06283 495.57 1.95349C494.461 0.844154 492.957 0.219666 491.388 0.216801H282.068Z" fill="#EBEBEB"/>
<path d="M475.529 123.695C475.526 122.512 475.055 121.377 474.218 120.54C473.381 119.703 472.247 119.232 471.063 119.229H331.943C330.759 119.232 329.625 119.703 328.788 120.54C327.951 121.377 327.479 122.512 327.476 123.695V138.069H475.529V123.695Z" fill="#E6E6E6"/>
<path d="M442.792 128.649C442.795 129.319 442.598 129.974 442.227 130.532C441.856 131.09 441.328 131.525 440.71 131.782C440.091 132.04 439.41 132.108 438.753 131.978C438.096 131.847 437.492 131.525 437.019 131.051C436.545 130.578 436.223 129.974 436.093 129.317C435.963 128.66 436.03 127.979 436.288 127.361C436.545 126.742 436.98 126.214 437.538 125.843C438.096 125.473 438.751 125.276 439.421 125.278C440.314 125.281 441.17 125.637 441.802 126.268C442.433 126.9 442.79 127.756 442.792 128.649Z" fill="#FBFBFB"/>
<path d="M454.76 128.649C454.762 129.318 454.565 129.973 454.195 130.531C453.825 131.089 453.297 131.524 452.679 131.781C452.062 132.039 451.381 132.108 450.724 131.978C450.068 131.849 449.464 131.528 448.99 131.055C448.516 130.583 448.193 129.98 448.061 129.324C447.93 128.667 447.996 127.987 448.252 127.368C448.508 126.75 448.941 126.221 449.497 125.849C450.054 125.477 450.708 125.278 451.378 125.278C452.273 125.278 453.131 125.633 453.765 126.265C454.399 126.897 454.757 127.754 454.76 128.649Z" fill="#FBFBFB"/>
<path d="M463.345 132.031C465.213 132.031 466.727 130.517 466.727 128.649C466.727 126.781 465.213 125.267 463.345 125.267C461.477 125.267 459.963 126.781 459.963 128.649C459.963 130.517 461.477 132.031 463.345 132.031Z" fill="#FBFBFB"/>
<path d="M331.943 234.892H471.063C472.247 234.889 473.381 234.418 474.218 233.581C475.055 232.744 475.526 231.61 475.529 230.426V138.069H327.476V230.426C327.479 231.61 327.951 232.744 328.788 233.581C329.625 234.418 330.759 234.889 331.943 234.892Z" fill="#F0F0F0"/>
<path d="M486.824 157.505C486.822 156.322 486.35 155.187 485.513 154.35C484.676 153.513 483.542 153.042 482.358 153.039H343.238C342.054 153.042 340.92 153.513 340.083 154.35C339.246 155.187 338.775 156.322 338.772 157.505V171.879H486.824V157.505Z" fill="#F0F0F0"/>
<path d="M454.098 162.459C454.098 163.128 453.9 163.782 453.528 164.338C453.157 164.894 452.629 165.328 452.011 165.584C451.393 165.84 450.713 165.907 450.056 165.776C449.4 165.646 448.798 165.324 448.325 164.851C447.852 164.378 447.53 163.775 447.399 163.119C447.269 162.463 447.336 161.783 447.592 161.165C447.848 160.547 448.281 160.019 448.837 159.647C449.393 159.275 450.047 159.077 450.716 159.077C451.613 159.077 452.474 159.433 453.108 160.068C453.742 160.702 454.098 161.562 454.098 162.459Z" fill="#E6E6E6"/>
<path d="M466.055 162.459C466.055 163.128 465.856 163.783 465.484 164.339C465.112 164.896 464.583 165.329 463.965 165.585C463.346 165.84 462.665 165.907 462.009 165.775C461.353 165.644 460.75 165.321 460.278 164.847C459.805 164.373 459.484 163.769 459.354 163.112C459.225 162.455 459.294 161.775 459.551 161.157C459.809 160.539 460.244 160.012 460.802 159.642C461.359 159.271 462.014 159.075 462.684 159.077C463.579 159.08 464.436 159.437 465.068 160.071C465.7 160.705 466.055 161.564 466.055 162.459Z" fill="#E6E6E6"/>
<path d="M478.044 162.459C478.044 163.128 477.845 163.783 477.473 164.339C477.101 164.896 476.572 165.329 475.954 165.585C475.335 165.84 474.654 165.907 473.998 165.775C473.342 165.644 472.739 165.321 472.267 164.847C471.794 164.373 471.473 163.769 471.343 163.112C471.214 162.455 471.283 161.775 471.54 161.157C471.798 160.539 472.233 160.012 472.791 159.642C473.348 159.271 474.003 159.075 474.673 159.077C475.568 159.08 476.425 159.437 477.057 160.071C477.689 160.705 478.044 161.564 478.044 162.459Z" fill="#E6E6E6"/>
<path d="M343.238 268.702H482.38C483.564 268.699 484.698 268.228 485.535 267.391C486.372 266.554 486.843 265.419 486.846 264.236V171.879H338.772V264.236C338.775 265.419 339.246 266.554 340.083 267.391C340.92 268.228 342.054 268.699 343.238 268.702Z" fill="#FAFAFA"/>
<path d="M53.8314 19.9565C53.8371 18.8351 54.2859 17.7615 55.0798 16.9696C55.8737 16.1777 56.9485 15.7317 58.0699 15.7289H240.648C241.769 15.7317 242.844 16.1777 243.638 16.9696C244.432 17.7615 244.881 18.8351 244.886 19.9565V33.604H53.8314V19.9565Z" fill="#E0E0E0"/>
<path d="M88.0858 28.184C87.3976 28.184 86.7249 27.9799 86.1527 27.5976C85.5804 27.2152 85.1344 26.6718 84.8711 26.036C84.6077 25.4002 84.5388 24.7005 84.6731 24.0255C84.8073 23.3505 85.1387 22.7305 85.6254 22.2439C86.112 21.7573 86.732 21.4259 87.407 21.2916C88.082 21.1573 88.7816 21.2262 89.4174 21.4896C90.0533 21.753 90.5967 22.199 90.9791 22.7712C91.3614 23.3434 91.5655 24.0162 91.5655 24.7044C91.5655 25.6272 91.1989 26.5123 90.5463 27.1649C89.8938 27.8174 89.0087 28.184 88.0858 28.184ZM88.0858 21.7776C87.507 21.7776 86.9411 21.9492 86.4598 22.2708C85.9785 22.5924 85.6034 23.0495 85.3818 23.5843C85.1603 24.1191 85.1023 24.7076 85.2153 25.2754C85.3282 25.8431 85.607 26.3646 86.0163 26.7739C86.4256 27.1833 86.9471 27.462 87.5148 27.5749C88.0826 27.6879 88.6711 27.6299 89.2059 27.4084C89.7407 27.1869 90.1978 26.8117 90.5194 26.3304C90.841 25.8491 91.0126 25.2832 91.0126 24.7044C91.0184 24.3164 90.9469 23.9311 90.8024 23.571C90.6579 23.2109 90.4432 22.8831 90.1709 22.6067C89.8985 22.3303 89.5739 22.1109 89.216 21.9611C88.858 21.8113 88.4739 21.7342 88.0858 21.7342V21.7776Z" fill="#FBFBFB"/>
<path d="M76.7363 28.184C76.05 28.184 75.379 27.9809 74.8077 27.6005C74.2365 27.22 73.7905 26.6791 73.5259 26.0458C73.2613 25.4125 73.1899 24.7151 73.3207 24.0413C73.4515 23.3676 73.7786 22.7475 74.2609 22.2592C74.7432 21.7709 75.3592 21.4361 76.0313 21.297C76.7034 21.1578 77.4016 21.2206 78.0382 21.4773C78.6747 21.7341 79.2211 22.1733 79.6086 22.7398C79.9961 23.3063 80.2074 23.9747 80.216 24.661C80.2217 25.1216 80.1359 25.5787 79.9636 26.0059C79.7913 26.4331 79.536 26.8218 79.2123 27.1496C78.8886 27.4773 78.503 27.7375 78.078 27.9151C77.653 28.0926 77.197 28.1841 76.7363 28.184ZM76.7363 21.7776C76.1575 21.7776 75.5916 21.9492 75.1103 22.2708C74.629 22.5924 74.2538 23.0495 74.0323 23.5843C73.8108 24.1191 73.7528 24.7076 73.8658 25.2754C73.9787 25.8431 74.2574 26.3646 74.6668 26.7739C75.0761 27.1833 75.5976 27.462 76.1653 27.5749C76.7331 27.6879 77.3216 27.6299 77.8564 27.4084C78.3912 27.1869 78.8483 26.8117 79.1699 26.3304C79.4915 25.8491 79.6631 25.2832 79.6631 24.7044C79.6689 24.3164 79.5974 23.9311 79.4529 23.571C79.3084 23.2109 79.0937 22.8831 78.8214 22.6067C78.549 22.3303 78.2244 22.1109 77.8665 21.9611C77.5085 21.8113 77.1244 21.7342 76.7363 21.7342V21.7776Z" fill="#FBFBFB"/>
<path d="M65.3869 28.184C64.6987 28.184 64.0259 27.9799 63.4537 27.5976C62.8815 27.2152 62.4355 26.6718 62.1721 26.036C61.9087 25.4002 61.8398 24.7005 61.9741 24.0255C62.1084 23.3505 62.4398 22.7305 62.9264 22.2439C63.413 21.7573 64.033 21.4259 64.708 21.2916C65.383 21.1573 66.0826 21.2262 66.7185 21.4896C67.3543 21.753 67.8977 22.199 68.2801 22.7712C68.6624 23.3434 68.8665 24.0162 68.8665 24.7044C68.8665 25.6272 68.4999 26.5123 67.8473 27.1649C67.1948 27.8174 66.3097 28.184 65.3869 28.184ZM65.3869 21.7776C64.808 21.7776 64.2421 21.9492 63.7608 22.2708C63.2795 22.5924 62.9044 23.0495 62.6829 23.5843C62.4613 24.1191 62.4034 24.7076 62.5163 25.2754C62.6292 25.8431 62.908 26.3646 63.3173 26.7739C63.7266 27.1833 64.2481 27.462 64.8159 27.5749C65.3836 27.6879 65.9721 27.6299 66.5069 27.4084C67.0417 27.1869 67.4988 26.8117 67.8204 26.3304C68.142 25.8491 68.3137 25.2832 68.3137 24.7044C68.3194 24.3164 68.248 23.9311 68.1034 23.571C67.9589 23.2109 67.7443 22.8831 67.4719 22.6067C67.1996 22.3303 66.875 22.1109 66.517 21.9611C66.1591 21.8113 65.7749 21.7342 65.3869 21.7342V21.7776Z" fill="#FBFBFB"/>
<path d="M58.0699 146.947H240.648C241.771 146.944 242.848 146.497 243.642 145.702C244.436 144.908 244.884 143.832 244.886 142.709V33.604H53.8314V142.709C53.8343 143.832 54.2817 144.908 55.076 145.702C55.8702 146.497 56.9466 146.944 58.0699 146.947Z" fill="#EBEBEB"/>
<path d="M99.6304 48.574C99.6361 47.4527 100.085 46.3791 100.879 45.5872C101.673 44.7953 102.748 44.3493 103.869 44.3464H286.414C287.536 44.3493 288.611 44.7953 289.405 45.5872C290.198 46.3791 290.647 47.4527 290.653 48.574V62.2108H99.6304V48.574Z" fill="#FAFAFA"/>
<path d="M133.885 56.7582C133.197 56.7582 132.524 56.5542 131.952 56.1718C131.379 55.7895 130.933 55.246 130.67 54.6102C130.407 53.9744 130.338 53.2747 130.472 52.5997C130.606 51.9248 130.938 51.3048 131.424 50.8181C131.911 50.3315 132.531 50.0001 133.206 49.8658C133.881 49.7315 134.581 49.8005 135.216 50.0638C135.852 50.3272 136.396 50.7732 136.778 51.3454C137.16 51.9176 137.364 52.5904 137.364 53.2786C137.364 54.2015 136.998 55.0865 136.345 55.7391C135.693 56.3916 134.808 56.7582 133.885 56.7582ZM133.885 50.3518C133.306 50.3518 132.74 50.5234 132.259 50.845C131.778 51.1666 131.402 51.6237 131.181 52.1586C130.959 52.6934 130.901 53.2818 131.014 53.8496C131.127 54.4173 131.406 54.9388 131.815 55.3482C132.225 55.7575 132.746 56.0362 133.314 56.1492C133.882 56.2621 134.47 56.2041 135.005 55.9826C135.54 55.7611 135.997 55.3859 136.318 54.9046C136.64 54.4233 136.812 53.8575 136.812 53.2786C136.812 52.5024 136.503 51.7579 135.954 51.209C135.406 50.6602 134.661 50.3518 133.885 50.3518Z" fill="#E6E6E6"/>
<path d="M122.492 56.7582C121.804 56.7582 121.131 56.5542 120.559 56.1718C119.987 55.7895 119.541 55.246 119.277 54.6102C119.014 53.9744 118.945 53.2747 119.079 52.5997C119.213 51.9248 119.545 51.3048 120.031 50.8181C120.518 50.3315 121.138 50.0001 121.813 49.8658C122.488 49.7315 123.188 49.8005 123.824 50.0638C124.459 50.3272 125.003 50.7732 125.385 51.3454C125.768 51.9176 125.972 52.5904 125.972 53.2786C125.972 54.2015 125.605 55.0865 124.952 55.7391C124.3 56.3916 123.415 56.7582 122.492 56.7582ZM122.492 50.3518C121.913 50.3518 121.347 50.5234 120.866 50.845C120.385 51.1666 120.009 51.6237 119.788 52.1586C119.566 52.6934 119.508 53.2818 119.621 53.8496C119.734 54.4173 120.013 54.9388 120.422 55.3482C120.832 55.7575 121.353 56.0362 121.921 56.1492C122.489 56.2621 123.077 56.2041 123.612 55.9826C124.147 55.7611 124.604 55.3859 124.926 54.9046C125.247 54.4233 125.419 53.8575 125.419 53.2786C125.419 52.5024 125.11 51.7579 124.562 51.209C124.013 50.6602 123.268 50.3518 122.492 50.3518Z" fill="#E6E6E6"/>
<path d="M111.186 56.7582C110.498 56.7582 109.825 56.5542 109.253 56.1718C108.68 55.7895 108.234 55.246 107.971 54.6102C107.708 53.9744 107.639 53.2747 107.773 52.5997C107.907 51.9248 108.239 51.3048 108.725 50.8181C109.212 50.3315 109.832 50.0001 110.507 49.8658C111.182 49.7315 111.882 49.8005 112.517 50.0638C113.153 50.3272 113.697 50.7732 114.079 51.3454C114.461 51.9176 114.666 52.5904 114.666 53.2786C114.666 54.2015 114.299 55.0865 113.646 55.7391C112.994 56.3916 112.109 56.7582 111.186 56.7582ZM111.186 50.3518C110.607 50.3518 110.041 50.5234 109.56 50.845C109.079 51.1666 108.703 51.6237 108.482 52.1586C108.26 52.6934 108.202 53.2818 108.315 53.8496C108.428 54.4173 108.707 54.9388 109.116 55.3482C109.526 55.7575 110.047 56.0362 110.615 56.1492C111.183 56.2621 111.771 56.2041 112.306 55.9826C112.841 55.7611 113.298 55.3859 113.619 54.9046C113.941 54.4233 114.113 53.8575 114.113 53.2786C114.113 52.5024 113.804 51.7579 113.255 51.209C112.707 50.6602 111.962 50.3518 111.186 50.3518Z" fill="#E6E6E6"/>
<path d="M103.869 197.082H286.414C287.538 197.079 288.614 196.632 289.408 195.837C290.203 195.043 290.65 193.967 290.653 192.844V62.2108H99.6304V192.844C99.6333 193.967 100.081 195.043 100.875 195.837C101.669 196.632 102.746 197.079 103.869 197.082Z" fill="#F5F5F5"/>
<path d="M378.424 71.8584H314.035C313.257 71.8584 312.626 72.4893 312.626 73.2676V83.8366C312.626 84.6148 313.257 85.2458 314.035 85.2458H378.424C379.203 85.2458 379.834 84.6148 379.834 83.8366V73.2676C379.834 72.4893 379.203 71.8584 378.424 71.8584Z" fill="#E6E6E6"/>
<path d="M426.272 49.1594L314.035 49.864C313.661 49.864 313.303 50.0125 313.038 50.2768C312.774 50.541 312.626 50.8995 312.626 51.2732V61.853C312.631 62.2259 312.783 62.5815 313.049 62.8432C313.315 63.1048 313.673 63.2514 314.046 63.2514L426.283 62.5468C426.655 62.5439 427.011 62.3942 427.272 62.1302C427.534 61.8663 427.681 61.5095 427.681 61.1376V50.5578C427.681 50.3732 427.645 50.1905 427.574 50.0201C427.503 49.8498 427.399 49.6951 427.268 49.5651C427.137 49.4351 426.982 49.3324 426.811 49.2627C426.64 49.1931 426.457 49.158 426.272 49.1594Z" fill="#F0F0F0"/>
<path d="M401.665 27.1542H314.035C313.257 27.1542 312.626 27.7851 312.626 28.5634V39.1324C312.626 39.9107 313.257 40.5416 314.035 40.5416H401.665C402.444 40.5416 403.075 39.9107 403.075 39.1324V28.5634C403.075 27.7851 402.444 27.1542 401.665 27.1542Z" fill="#F0F0F0"/>
<path d="M88.9096 244.019H66.5901C66.2129 244.019 65.9072 244.325 65.9072 244.702V252.225C65.9072 252.602 66.2129 252.908 66.5901 252.908H88.9096C89.2868 252.908 89.5926 252.602 89.5926 252.225V244.702C89.5926 244.325 89.2868 244.019 88.9096 244.019Z" fill="#E6E6E6"/>
<path d="M105.961 229.342L66.4058 229.808C66.124 229.808 65.9072 230.231 65.9072 230.74V237.765C65.9072 238.274 66.1348 238.697 66.4058 238.697L105.972 238.22C106.243 238.22 106.47 237.797 106.47 237.288V230.263C106.46 229.808 106.232 229.342 105.961 229.342Z" fill="#F0F0F0"/>
<path d="M97.1047 215.141H66.5901C66.2129 215.141 65.9072 215.447 65.9072 215.824V223.347C65.9072 223.725 66.2129 224.03 66.5901 224.03H97.1047C97.4819 224.03 97.7876 223.725 97.7876 223.347V215.824C97.7876 215.447 97.4819 215.141 97.1047 215.141Z" fill="#F0F0F0"/>
<path d="M105.961 272.669L66.4058 273.168C66.124 273.168 65.9072 273.591 65.9072 274.1V281.125C65.9072 281.634 66.1348 282.057 66.4058 282.057L105.972 281.58C106.243 281.58 106.47 281.157 106.47 280.648V273.623C106.46 273.092 106.232 272.669 105.961 272.669Z" fill="#F0F0F0"/>
<path d="M97.1047 258.469H66.5901C66.2129 258.469 65.9072 258.775 65.9072 259.152V266.675C65.9072 267.052 66.2129 267.358 66.5901 267.358H97.1047C97.4819 267.358 97.7876 267.052 97.7876 266.675V259.152C97.7876 258.775 97.4819 258.469 97.1047 258.469Z" fill="#F0F0F0"/>
<path d="M271 403.855C387.077 403.855 481.177 398.361 481.177 391.584C481.177 384.807 387.077 379.313 271 379.313C154.923 379.313 60.8232 384.807 60.8232 391.584C60.8232 398.361 154.923 403.855 271 403.855Z" fill="#F5F5F5"/>
<path d="M476.31 30.4713H271.585V234.177H476.31V30.4713Z" fill="#053563"/>
<path opacity="0.1" d="M338.414 40.6066H271.585V78.9477H338.414V40.6066Z" fill="black"/>
<path opacity="0.2" d="M338.414 117.289H271.585V155.63H338.414V117.289Z" fill="black"/>
<path opacity="0.1" d="M338.414 155.63H271.585V193.971H338.414V155.63Z" fill="black"/>
<path d="M338.414 40.6066H472.917V226.556C472.917 227.873 472.394 229.135 471.463 230.067C470.531 230.998 469.269 231.521 467.952 231.521H343.379C342.062 231.521 340.799 230.998 339.868 230.067C338.937 229.135 338.414 227.873 338.414 226.556V40.6066Z" fill="#FBFBFB"/>
<path opacity="0.3" d="M476.31 30.4713H271.585V40.6067H476.31V30.4713Z" fill="black"/>
<path opacity="0.8" d="M279.564 37.604C280.701 37.604 281.623 36.6819 281.623 35.5444C281.623 34.4069 280.701 33.4848 279.564 33.4848C278.426 33.4848 277.504 34.4069 277.504 35.5444C277.504 36.6819 278.426 37.604 279.564 37.604Z" fill="#053563"/>
<path opacity="0.8" d="M288.962 37.604C290.099 37.604 291.022 36.6819 291.022 35.5444C291.022 34.4069 290.099 33.4848 288.962 33.4848C287.824 33.4848 286.902 34.4069 286.902 35.5444C286.902 36.6819 287.824 37.604 288.962 37.604Z" fill="#053563"/>
<path opacity="0.8" d="M298.349 37.604C299.487 37.604 300.409 36.6819 300.409 35.5444C300.409 34.4069 299.487 33.4848 298.349 33.4848C297.212 33.4848 296.29 34.4069 296.29 35.5444C296.29 36.6819 297.212 37.604 298.349 37.604Z" fill="#053563"/>
<path opacity="0.2" d="M430.272 59.7176H351.888C350.182 59.7176 348.799 61.1007 348.799 62.807V124.422C348.799 126.128 350.182 127.511 351.888 127.511H430.272C431.978 127.511 433.362 126.128 433.362 124.422V62.807C433.362 61.1007 431.978 59.7176 430.272 59.7176Z" fill="#053563"/>
<path opacity="0.2" d="M462.467 54.3301H402.262C400.951 54.3301 399.888 55.3929 399.888 56.704V104.031C399.888 105.343 400.951 106.405 402.262 106.405H462.467C463.778 106.405 464.841 105.343 464.841 104.031V56.704C464.841 55.3929 463.778 54.3301 462.467 54.3301Z" fill="#053563"/>
<path opacity="0.2" d="M428.787 149.386H368.582C367.271 149.386 366.208 150.449 366.208 151.76V199.087C366.208 200.399 367.271 201.461 368.582 201.461H428.787C430.098 201.461 431.161 200.399 431.161 199.087V151.76C431.161 150.449 430.098 149.386 428.787 149.386Z" fill="#053563"/>
<path opacity="0.7" d="M476.31 30.4713H271.585V234.177H476.31V30.4713Z" fill="#FBFBFB"/>
<path d="M457.513 49.2678H252.789V252.973H457.513V49.2678Z" fill="#053563"/>
<path opacity="0.1" d="M319.617 59.4032H252.789V97.7443H319.617V59.4032Z" fill="black"/>
<path opacity="0.2" d="M319.617 136.075H252.789V174.416H319.617V136.075Z" fill="black"/>
<path opacity="0.1" d="M319.617 174.416H252.789V212.757H319.617V174.416Z" fill="black"/>
<path d="M319.617 59.4032H454.12V245.342C454.12 246.658 453.597 247.921 452.666 248.852C451.735 249.783 450.472 250.306 449.155 250.306H324.593C323.276 250.306 322.013 249.783 321.082 248.852C320.151 247.921 319.628 246.658 319.628 245.342V59.4032H319.617Z" fill="#FBFBFB"/>
<path opacity="0.3" d="M457.513 49.2678H252.789V59.4032H457.513V49.2678Z" fill="black"/>
<path opacity="0.8" d="M260.767 56.3897C261.905 56.3897 262.827 55.4676 262.827 54.3301C262.827 53.1926 261.905 52.2705 260.767 52.2705C259.63 52.2705 258.708 53.1926 258.708 54.3301C258.708 55.4676 259.63 56.3897 260.767 56.3897Z" fill="#053563"/>
<path opacity="0.8" d="M270.165 56.3897C271.303 56.3897 272.225 55.4676 272.225 54.3301C272.225 53.1926 271.303 52.2705 270.165 52.2705C269.028 52.2705 268.106 53.1926 268.106 54.3301C268.106 55.4676 269.028 56.3897 270.165 56.3897Z" fill="#053563"/>
<path opacity="0.8" d="M279.564 56.3897C280.701 56.3897 281.623 55.4676 281.623 54.3301C281.623 53.1926 280.701 52.2705 279.564 52.2705C278.426 52.2705 277.504 53.1926 277.504 54.3301C277.504 55.4676 278.426 56.3897 279.564 56.3897Z" fill="#053563"/>
<path opacity="0.2" d="M411.486 78.5141H333.102C331.396 78.5141 330.013 79.8973 330.013 81.6035V143.218C330.013 144.924 331.396 146.307 333.102 146.307H411.486C413.193 146.307 414.576 144.924 414.576 143.218V81.6035C414.576 79.8973 413.193 78.5141 411.486 78.5141Z" fill="#053563"/>
<path opacity="0.2" d="M444.668 132.075H384.462C383.151 132.075 382.088 133.137 382.088 134.449V181.776C382.088 183.087 383.151 184.15 384.462 184.15H444.668C445.979 184.15 447.042 183.087 447.042 181.776V134.449C447.042 133.137 445.979 132.075 444.668 132.075Z" fill="#053563"/>
<path opacity="0.2" d="M410.001 168.183H349.796C348.485 168.183 347.422 169.245 347.422 170.557V217.884C347.422 219.195 348.485 220.258 349.796 220.258H410.001C411.312 220.258 412.375 219.195 412.375 217.884V170.557C412.375 169.245 411.312 168.183 410.001 168.183Z" fill="#053563"/>
<path opacity="0.5" d="M457.513 49.2678H252.789V252.973H457.513V49.2678Z" fill="#FBFBFB"/>
<path d="M438.727 68.0535H234.003V271.759H438.727V68.0535Z" fill="#053563"/>
<path opacity="0.1" d="M300.832 78.1889H234.003V116.53H300.832V78.1889Z" fill="black"/>
<path opacity="0.2" d="M300.832 154.871H234.003V193.212H300.832V154.871Z" fill="black"/>
<path opacity="0.1" d="M300.832 193.212H234.003V231.553H300.832V193.212Z" fill="black"/>
<path d="M300.832 78.1889H435.334V264.138C435.334 265.455 434.811 266.718 433.88 267.649C432.949 268.58 431.686 269.103 430.37 269.103H305.796C304.48 269.103 303.217 268.58 302.286 267.649C301.355 266.718 300.832 265.455 300.832 264.138V78.1889Z" fill="#FBFBFB"/>
<path opacity="0.3" d="M438.727 68.0535H234.003V78.1889H438.727V68.0535Z" fill="black"/>
<path opacity="0.8" d="M241.981 75.1863C243.119 75.1863 244.041 74.2641 244.041 73.1266C244.041 71.9892 243.119 71.067 241.981 71.067C240.844 71.067 239.922 71.9892 239.922 73.1266C239.922 74.2641 240.844 75.1863 241.981 75.1863Z" fill="#053563"/>
<path opacity="0.8" d="M253.439 73.1266C253.441 73.5366 253.322 73.938 253.096 74.2799C252.869 74.6218 252.547 74.8888 252.169 75.0472C251.79 75.2056 251.374 75.2481 250.972 75.1695C250.569 75.0908 250.199 74.8945 249.909 74.6053C249.618 74.3162 249.42 73.9473 249.339 73.5454C249.258 73.1435 249.299 72.7266 249.455 72.3477C249.611 71.9687 249.877 71.6447 250.217 71.4167C250.558 71.1888 250.959 71.0671 251.369 71.067C251.64 71.0656 251.909 71.1178 252.16 71.2207C252.411 71.3236 252.64 71.475 252.832 71.6664C253.025 71.8578 253.177 72.0854 253.281 72.336C253.386 72.5866 253.439 72.8553 253.439 73.1266Z" fill="#053563"/>
<path opacity="0.8" d="M260.767 75.1863C261.905 75.1863 262.827 74.2641 262.827 73.1266C262.827 71.9892 261.905 71.067 260.767 71.067C259.63 71.067 258.708 71.9892 258.708 73.1266C258.708 74.2641 259.63 75.1863 260.767 75.1863Z" fill="#053563"/>
<path opacity="0.2" d="M345.091 63.0563H227.315C224.752 63.0563 222.675 65.1335 222.675 67.6958V160.28C222.675 162.843 224.752 164.92 227.315 164.92H345.091C347.654 164.92 349.731 162.843 349.731 160.28V67.6958C349.731 65.1335 347.654 63.0563 345.091 63.0563Z" fill="#053563"/>
<path opacity="0.2" d="M408.798 112.823H318.338C316.369 112.823 314.772 114.419 314.772 116.389V187.499C314.772 189.469 316.369 191.066 318.338 191.066H408.798C410.768 191.066 412.364 189.469 412.364 187.499V116.389C412.364 114.419 410.768 112.823 408.798 112.823Z" fill="#053563"/>
<path opacity="0.2" d="M441.448 209.461H350.988C349.019 209.461 347.422 211.058 347.422 213.028V284.138C347.422 286.108 349.019 287.704 350.988 287.704H441.448C443.418 287.704 445.015 286.108 445.015 284.138V213.028C445.015 211.058 443.418 209.461 441.448 209.461Z" fill="#053563"/>
<path d="M173.819 122.665L165.95 139.175C163.348 144.682 160.801 150.221 158.535 155.706L157.722 157.755C157.603 158.069 157.57 158.134 157.484 158.405C157.397 158.676 157.332 158.893 157.267 159.196C156.981 160.491 156.767 161.801 156.627 163.12C156.324 165.95 156.15 168.941 156.042 171.944C155.825 177.96 155.771 184.128 155.695 190.231L149.755 190.892C148.396 184.732 147.412 178.495 146.806 172.215C146.481 168.974 146.329 165.717 146.351 162.459C146.357 160.697 146.48 158.937 146.719 157.191C146.774 156.736 146.882 156.215 146.99 155.717C147.099 155.218 147.283 154.557 147.402 154.145L148.15 151.836C150.177 145.733 152.541 139.912 155.023 134.178C157.505 128.443 160.161 122.817 163.023 117.213L173.819 122.665Z" fill="#FFC3BD"/>
<path d="M155.608 188.367L158.383 193.559L149.527 196.031C149.527 196.031 147.836 191.857 149.841 188.573L155.608 188.367Z" fill="#FFC3BD"/>
<path d="M161.787 201.05L153.635 201.689L149.527 196.031L158.383 193.559L161.787 201.05Z" fill="#FFC3BD"/>
<path d="M200.345 79.8041C200.475 80.4328 200.909 80.8881 201.321 80.7906C201.732 80.693 201.96 80.1293 201.841 79.5006C201.722 78.8719 201.277 78.4166 200.865 78.5142C200.453 78.6117 200.215 79.132 200.345 79.8041Z" fill="#263238"/>
<path d="M200.854 80.8881C201.995 82.6581 203.374 84.263 204.952 85.6577C204.587 86.0533 204.139 86.3641 203.641 86.5682C203.143 86.7724 202.606 86.8649 202.068 86.8393L200.854 80.8881Z" fill="#ED847E"/>
<path d="M197.288 76.7798C197.394 76.7777 197.495 76.735 197.57 76.6605C197.88 76.3022 198.27 76.0229 198.71 75.8457C199.149 75.6685 199.624 75.5985 200.096 75.6415C200.195 75.6588 200.297 75.6359 200.379 75.578C200.461 75.5201 200.517 75.4318 200.535 75.3326C200.552 75.2334 200.529 75.1314 200.471 75.0491C200.413 74.9668 200.325 74.9108 200.226 74.8936C199.623 74.8229 199.013 74.8994 198.446 75.1165C197.88 75.3337 197.374 75.6849 196.974 76.1402C196.923 76.1938 196.889 76.2609 196.876 76.3334C196.863 76.4059 196.872 76.4806 196.9 76.5484C196.929 76.6162 196.977 76.6742 197.038 76.7153C197.099 76.7564 197.171 76.7788 197.245 76.7798H197.288Z" fill="#263238"/>
<path d="M182.416 88.6604C183.554 94.4814 184.703 105.159 180.627 109.04C180.627 109.04 182.22 114.958 193.039 114.958C204.963 114.958 198.73 109.05 198.73 109.05C192.226 107.489 192.399 102.676 193.527 98.1454L182.416 88.6604Z" fill="#FFC3BD"/>
<path d="M177.917 111.11C176.974 109.419 175.922 107.489 178.09 106.893C180.464 106.221 193.505 105.549 198.003 106.796C202.502 108.042 201.255 111.457 201.255 111.457L177.917 111.11Z" fill="#263238"/>
<path d="M144.291 375.476C144.961 375.634 145.666 375.521 146.253 375.162C146.358 375.038 146.422 374.886 146.438 374.725C146.453 374.564 146.419 374.403 146.34 374.262C146.291 374.145 146.217 374.04 146.123 373.954C146.03 373.868 145.919 373.803 145.798 373.763C144.714 373.362 142.329 374.63 142.221 374.685C142.19 374.701 142.164 374.726 142.147 374.757C142.129 374.788 142.121 374.823 142.123 374.858C142.126 374.895 142.14 374.93 142.163 374.959C142.186 374.988 142.218 375.01 142.253 375.021C142.916 375.239 143.599 375.392 144.291 375.476ZM145.451 374.067L145.679 374.121C145.75 374.143 145.815 374.181 145.869 374.232C145.923 374.282 145.966 374.344 145.993 374.414C146.134 374.739 145.993 374.858 145.993 374.901C145.603 375.303 143.988 375.14 142.828 374.804C143.637 374.367 144.533 374.115 145.451 374.067Z" fill="#053563"/>
<path d="M142.297 375.064C142.325 375.075 142.356 375.075 142.384 375.064C143.251 374.706 145.028 373.145 144.953 372.246C144.941 372.105 144.88 371.972 144.781 371.872C144.682 371.771 144.551 371.707 144.411 371.693C144.271 371.656 144.124 371.651 143.982 371.677C143.839 371.703 143.705 371.76 143.587 371.845C142.589 372.495 142.145 374.76 142.134 374.858C142.129 374.89 142.132 374.923 142.143 374.954C142.155 374.984 142.174 375.011 142.199 375.031C142.212 375.044 142.227 375.053 142.244 375.059C142.261 375.064 142.279 375.066 142.297 375.064ZM144.107 372.278H144.183C144.421 372.354 144.421 372.462 144.421 372.517C144.421 373.048 143.186 374.164 142.253 374.62C142.471 373.739 142.951 372.945 143.63 372.343C143.699 372.296 143.777 372.263 143.859 372.246C143.941 372.23 144.025 372.229 144.107 372.246V372.278Z" fill="#053563"/>
<path d="M201.808 383.064C202.827 383.064 203.814 382.923 204.139 382.457C204.227 382.338 204.274 382.193 204.274 382.045C204.274 381.897 204.227 381.752 204.139 381.633C204.007 381.412 203.792 381.252 203.543 381.189C202.22 380.831 199.434 382.424 199.315 382.489C199.279 382.502 199.249 382.526 199.227 382.557C199.205 382.588 199.193 382.625 199.193 382.663C199.193 382.701 199.205 382.738 199.227 382.769C199.249 382.8 199.279 382.823 199.315 382.836C200.138 382.985 200.972 383.061 201.808 383.064ZM203.066 381.514C203.188 381.497 203.312 381.497 203.434 381.514C203.511 381.529 203.583 381.56 203.646 381.605C203.71 381.649 203.763 381.707 203.803 381.774C203.933 382.012 203.89 382.132 203.803 382.197C203.434 382.706 201.418 382.717 199.944 382.511C200.914 381.998 201.974 381.677 203.066 381.568V381.514Z" fill="#053563"/>
<path d="M199.456 382.836C200.41 382.403 202.318 380.668 202.177 379.779C202.177 379.573 201.993 379.302 201.472 379.248C201.279 379.227 201.083 379.244 200.897 379.3C200.711 379.356 200.538 379.449 200.388 379.573C199.38 380.408 199.163 382.554 199.153 382.641C199.151 382.674 199.157 382.707 199.171 382.737C199.184 382.767 199.203 382.793 199.228 382.815C199.262 382.836 199.3 382.849 199.34 382.853C199.379 382.857 199.419 382.851 199.456 382.836ZM201.396 379.584H201.505C201.852 379.584 201.873 379.758 201.873 379.801C201.96 380.332 200.67 381.687 199.705 382.283C199.807 381.372 200.186 380.513 200.789 379.823C200.95 379.701 201.141 379.625 201.342 379.606L201.396 379.584Z" fill="#053563"/>
<path d="M190.643 382.652H198.61L199.402 364.213H191.434L190.643 382.652Z" fill="#FFC3BD"/>
<path d="M133.245 373.861L141.159 374.717L147.131 356.82L139.218 355.964L133.245 373.861Z" fill="#FFC3BD"/>
<path d="M141.82 373.861L132.931 372.896C132.774 372.88 132.615 372.917 132.482 373.001C132.348 373.086 132.246 373.213 132.194 373.362L129.874 380.235C129.818 380.401 129.8 380.578 129.822 380.753C129.844 380.927 129.905 381.094 130.001 381.241C130.097 381.389 130.225 381.512 130.376 381.603C130.527 381.693 130.696 381.748 130.871 381.763C133.982 382.056 135.511 382.034 139.424 382.457C141.831 382.717 146.763 383.541 150.091 383.866C153.419 384.191 154.199 380.994 152.877 380.549C146.915 378.555 144.822 376.462 143.055 374.49C142.733 374.137 142.294 373.914 141.82 373.861Z" fill="#263238"/>
<path d="M198.556 381.731H189.884C189.727 381.73 189.574 381.783 189.452 381.882C189.329 381.981 189.245 382.119 189.212 382.273L187.64 389.351C187.601 389.522 187.601 389.699 187.64 389.87C187.679 390.04 187.756 390.2 187.866 390.337C187.975 390.473 188.114 390.583 188.272 390.659C188.43 390.734 188.603 390.772 188.779 390.771C191.922 390.717 196.453 390.533 200.399 390.533C205.006 390.533 208.984 390.782 214.394 390.782C217.646 390.782 218.567 387.476 217.201 387.172C210.968 385.817 205.884 385.666 200.507 382.348C199.927 381.965 199.252 381.751 198.556 381.731Z" fill="#263238"/>
<path d="M210.426 113.115C212.681 113.82 215.207 114.59 217.624 115.283C220.041 115.977 222.524 116.573 224.984 117.105C229.774 118.233 234.652 118.947 239.564 119.24C240.735 119.24 241.895 119.316 243.011 119.24H243.694C243.835 119.24 244.073 119.24 244.269 119.186C244.702 119.121 245.201 119.012 245.721 118.882C248.029 118.248 250.292 117.462 252.496 116.53C257.157 114.622 261.938 112.389 266.664 110.232L269.97 115.208C265.862 118.838 261.444 122.102 256.767 124.964C254.297 126.504 251.696 127.825 248.995 128.909C248.223 129.216 247.434 129.477 246.632 129.69C246.176 129.798 245.765 129.907 245.255 129.993L244.529 130.113L243.965 130.178C242.447 130.373 240.962 130.449 239.488 130.492C233.807 130.54 228.135 129.995 222.567 128.866C219.846 128.324 217.147 127.782 214.491 127.001C211.835 126.221 209.255 125.538 206.491 124.541L210.426 113.115Z" fill="#FFC3BD"/>
<path d="M166.362 110.85C158.904 112.552 151.359 134.384 151.359 134.384L166.719 145.397C166.719 145.397 171.055 135.24 175.229 126.351C179.651 117.072 173.993 109.094 166.362 110.85Z" fill="#053563"/>
<path opacity="0.3" d="M166.362 110.85C158.904 112.552 151.359 134.384 151.359 134.384L166.719 145.397C166.719 145.397 171.055 135.24 175.229 126.351C179.651 117.072 173.993 109.094 166.362 110.85Z" fill="black"/>
<path d="M210.979 111.251C210.979 111.251 219.456 120.834 211.445 180.085H168.855C168.562 173.581 172.67 141.657 166.362 110.85C171.072 109.937 175.838 109.333 180.627 109.04C186.656 108.687 192.701 108.687 198.73 109.04C202.864 109.459 206.959 110.198 210.979 111.251Z" fill="#053563"/>
<path opacity="0.3" d="M210.979 111.251C210.979 111.251 219.456 120.834 211.445 180.085H168.855C168.562 173.581 172.67 141.657 166.362 110.85C171.072 109.937 175.838 109.333 180.627 109.04C186.656 108.687 192.701 108.687 198.73 109.04C202.864 109.459 206.959 110.198 210.979 111.251Z" fill="black"/>
<path opacity="0.3" d="M210.979 111.251C210.979 111.251 210.025 110.991 208.475 110.633C203.792 111.121 201.516 116.508 202.773 122.102C203.705 126.264 209.754 131.955 214.892 136.194C214.773 115.544 210.979 111.251 210.979 111.251Z" fill="black"/>
<path d="M200.54 123.478C204.345 130.069 225.147 136.486 225.147 136.486L232.128 117.777C232.128 117.777 220.204 114.525 210.957 111.273C199.521 107.164 196.388 116.237 200.54 123.478Z" fill="#053563"/>
<path opacity="0.3" d="M200.54 123.478C204.345 130.069 225.147 136.486 225.147 136.486L232.128 117.777C232.128 117.777 220.204 114.525 210.957 111.273C199.521 107.164 196.388 116.237 200.54 123.478Z" fill="black"/>
<path d="M265.309 112.042L266.632 103.75L273.981 105.853C273.981 105.853 275.065 113.235 269.71 115.413L265.309 112.042Z" fill="#FFC3BD"/>
<path d="M269.797 96.4327L275.997 101.647L273.981 105.853L266.632 103.75L269.797 96.4327Z" fill="#FFC3BD"/>
<path opacity="0.2" d="M199.391 364.213L198.99 373.72H191.022L191.424 364.213H199.391Z" fill="black"/>
<path opacity="0.2" d="M139.218 355.964L147.131 356.831L144.053 366.056L136.129 365.189L139.218 355.964Z" fill="black"/>
<path d="M179.077 82.7309C181.126 90.3731 181.939 94.9476 186.665 98.1128C193.754 102.893 202.578 97.4082 202.849 89.3216C203.098 82.0371 199.716 70.7744 191.521 69.2351C189.718 68.8996 187.859 69.0272 186.119 69.6059C184.378 70.1846 182.813 71.1955 181.569 72.5439C180.326 73.8924 179.445 75.5343 179.009 77.3159C178.573 79.0976 178.597 80.9607 179.077 82.7309Z" fill="#FFC3BD"/>
<path d="M197.039 59.7718C196.99 60.2861 196.826 60.7829 196.559 61.2256C196.293 61.6683 195.931 62.0457 195.499 62.33C195.142 58.3192 193.548 54.4602 189.982 52.574C190.567 54.2759 188.898 56.9751 186.448 59.7284C186.176 58.7203 185.698 57.7792 185.045 56.9641C184.392 56.1489 183.578 55.4774 182.654 54.9914C181.028 61.2894 175.825 62.33 171.695 66.2108C170.801 67.0896 170.192 68.2168 169.946 69.4462C169.701 70.6755 169.83 71.9502 170.318 73.105C169.234 72.6172 167.944 72.7364 167.012 75.1646C167.906 74.5988 168.935 74.2808 169.993 74.2432C169.256 74.937 168.681 76.1402 169.104 78.8502C169.841 83.4355 179.261 97.0614 185.212 96.3785C191.716 95.6305 192.909 88.0967 193.06 81.3L193.31 81.17C197.819 78.7743 203.391 65.9614 197.039 59.7718Z" fill="#263238"/>
<path d="M189.971 82.861C190.785 84.6479 192.164 86.1179 193.895 87.0452C196.193 88.2376 197.472 86.4924 196.963 84.2052C196.497 82.1347 194.795 79.0345 192.378 78.7852C189.96 78.5358 189.017 80.693 189.971 82.861Z" fill="#FFC3BD"/>
<path d="M196.345 180.085C196.345 180.085 187.304 240.941 182.34 263.748C176.92 288.68 148.335 365.156 148.335 365.156L133.993 362.522C133.993 362.522 155.348 290.729 158.448 266.046C161.82 239.217 168.855 180.128 168.855 180.128L196.345 180.085Z" fill="#053563"/>
<path opacity="0.2" d="M190.632 201.765C180.183 203.814 181.288 242.783 182.546 262.827C185.559 248.659 189.971 221.396 192.985 202.047C192.255 201.688 191.426 201.588 190.632 201.765Z" fill="black"/>
<path d="M211.445 180.085C211.445 180.085 212.529 239.629 211.684 263.911C210.784 289.168 201.928 371.877 201.928 371.877H188.464C188.464 371.877 187.966 290.642 187.38 265.84C186.73 238.794 183.456 180.085 183.456 180.085H211.445Z" fill="#053563"/>
<path opacity="0.2" d="M199.684 362.11L199.098 362.045C201.472 339.162 207.087 283.791 207.77 263.943C208.497 243.607 207.835 198.166 207.619 184.724L208.204 184.659C208.421 198.101 209.082 243.564 208.356 263.932C207.673 283.813 202.058 339.216 199.684 362.11Z" fill="black"/>
<path d="M151.597 360.3C151.663 360.3 149.104 365.536 149.104 365.536L132.964 362.566L134.167 357.698L151.597 360.3Z" fill="#053563"/>
<path opacity="0.5" d="M151.597 360.3C151.663 360.3 149.104 365.536 149.104 365.536L132.964 362.566L134.167 357.698L151.597 360.3Z" fill="black"/>
<path d="M204.551 366.5C204.616 366.5 203.792 372.105 203.792 372.105H187.38L186.936 367.107L204.551 366.5Z" fill="#053563"/>
<path opacity="0.5" d="M204.551 366.5C204.616 366.5 203.792 372.105 203.792 372.105H187.38L186.936 367.107L204.551 366.5Z" fill="black"/>
</svg>
